{
  "accessors": [
    {
      "bufferView": 2,
      "componentType": 5126,
      "count": 20785,
      "max": [
        0.8705369830131531,
        0.9123839735984802,
        0.4131070077419281
      ],
      "min": [
        -0.8705369830131531,
        -0.9808949828147888,
        -0.4255029857158661
      ],
      "type": "VEC3"
    },
    {
      "bufferView": 2,
      "byteOffset": 249420,
      "componentType": 5126,
      "count": 20785,
      "max": [
        1.0,
        0.9999293684959412,
        0.9992397427558899
      ],
      "min": [
        -1.0,
        -0.9999552369117737,
        -0.9993380904197693
      ],
      "type": "VEC3"
    },
    {
      "bufferView": 1,
      "componentType": 5126,
      "count": 20785,
      "max": [
        0.9908609986305237,
        1.0
      ],
      "min": [
        0.0,
        0.0
      ],
      "type": "VEC2"
    },
    {
      "bufferView": 0,
      "componentType": 5125,
      "count": 38442,
      "type": "SCALAR"
    }
  ],
  "asset": {
    "extras": {
      "author": "ONEPUT (https://sketchfab.com/ONEPUT)",
      "license": "CC-BY-4.0 (http://creativecommons.org/licenses/by/4.0/)",
      "source": "https://sketchfab.com/3d-models/robot-f71780758a79469d9988793e3a4a0f74",
      "title": "robot"
    },
    "generator": "Sketchfab-12.67.0",
    "version": "2.0"
  },
  "bufferViews": [
    {
      "buffer": 0,
      "byteLength": 153768,
      "name": "floatBufferViews",
      "target": 34963
    },
    {
      "buffer": 0,
      "byteLength": 166280,
      "byteOffset": 153768,
      "byteStride": 8,
      "name": "floatBufferViews",
      "target": 34962
    },
    {
      "buffer": 0,
      "byteLength": 498840,
      "byteOffset": 320048,
      "byteStride": 12,
      "name": "floatBufferViews",
      "target": 34962
    }
  ],
  "buffers": [
    {
      "byteLength": 818888,
      "uri": "scene.bin"
    }
  ],
  "images": [
    {
      "uri": "textures/aiStandard1_baseColor.jpeg"
    },
    {
      "uri": "textures/aiStandard1_metallicRoughness.png"
    },
    {
      "uri": "textures/aiStandard1_emissive.jpeg"
    }
  ],
  "materials": [
    {
      "doubleSided": true,
      "emissiveFactor": [
        1.0,
        1.0,
        1.0
      ],
      "emissiveTexture": {
        "index": 2
      },
      "name": "aiStandard1",
      "pbrMetallicRoughness": {
        "baseColorTexture": {
          "index": 0
        },
        "metallicRoughnessTexture": {
          "index": 1
        }
      }
    }
  ],
  "meshes": [
    {
      "name": "aiStandard1",
      "primitives": [
        {
          "attributes": {
            "NORMAL": 1,
            "POSITION": 0,
            "TEXCOORD_0": 2
          },
          "indices": 3,
          "material": 0,
          "mode": 4
        }
      ]
    }
  ],
  "nodes": [
    {
      "children": [
        1
      ],
      "matrix": [
        1.0,
        0.0,
        0.0,
        0.0,
        0.0,
        2.220446049250313e-16,
        -1.0,
        0.0,
        0.0,
        1.0,
        2.220446049250313e-16,
        0.0,
        0.0,
        0.0,
        0.0,
        1.0
      ],
      "name": "Sketchfab_model"
    },
    {
      "children": [
        2
      ],
      "matrix": [
        1.0,
        0.0,
        0.0,
        0.0,
        0.0,
        -4.371139006309477e-08,
        0.999999999999999,
        0.0,
        0.0,
        -0.999999999999999,
        -4.371139006309477e-08,
        0.0,
        0.0,
        0.0,
        0.0,
        1.0
      ],
      "name": "Collada visual scene group"
    },
    {
      "children": [
        3
      ],
      "name": "lowfinal_uv_low3_polySurface3"
    },
    {
      "mesh": 0,
      "name": "aiStandard1"
    }
  ],
  "samplers": [
    {
      "magFilter": 9729,
      "minFilter": 9987,
      "wrapS": 10497,
      "wrapT": 10497
    }
  ],
  "scene": 0,
  "scenes": [
    {
      "name": "Sketchfab_Scene",
      "nodes": [
        0
      ]
    }
  ],
  "textures": [
    {
      "sampler": 0,
      "source": 0
    },
    {
      "sampler": 0,
      "source": 1
    },
    {
      "sampler": 0,
      "source": 2
    }
  ]
}
