{
  "accessors": [
    {
      "bufferView": 2,
      "componentType": 5126,
      "count": 65532,
      "max": [
        7.358864784240723,
        2.855210065841675,
        4.751461982727051
      ],
      "min": [
        -2.4157888889312744,
        -11.201141357421875,
        -3.993001937866211
      ],
      "type": "VEC3"
    },
    {
      "bufferView": 2,
      "byteOffset": 786384,
      "componentType": 5126,
      "count": 65532,
      "max": [
        0.9999989867210388,
        1.0,
        1.0
      ],
      "min": [
        -0.9999428987503052,
        -1.0,
        -1.0
      ],
      "type": "VEC3"
    },
    {
      "bufferView": 1,
      "componentType": 5126,
      "count": 65532,
      "max": [
        0.9999759793281555,
        0.9655020236968994
      ],
      "min": [
        2.099999983329326e-05,
        0.27588900923728943
      ],
      "type": "VEC2"
    },
    {
      "bufferView": 0,
      "componentType": 5125,
      "count": 333180,
      "type": "SCALAR"
    },
    {
      "bufferView": 2,
      "byteOffset": 1572768,
      "componentType": 5126,
      "count": 65532,
      "max": [
        4.200990200042725,
        3.8812570571899414,
        4.644646167755127
      ],
      "min": [
        -7.381971836090088,
        -1.4467639923095703,
        -3.993001937866211
      ],
      "type": "VEC3"
    },
    {
      "bufferView": 2,
      "byteOffset": 2359152,
      "componentType": 5126,
      "count": 65532,
      "max": [
        0.9988999962806702,
        1.0,
        1.0
      ],
      "min": [
        -1.0,
        -0.9370958805084229,
        -1.0
      ],
      "type": "VEC3"
    },
    {
      "bufferView": 1,
      "byteOffset": 524256,
      "componentType": 5126,
      "count": 65532,
      "max": [
        0.9999889731407166,
        0.3103410005569458
      ],
      "min": [
        0.0,
        7.000000096013537e-06
      ],
      "type": "VEC2"
    },
    {
      "bufferView": 0,
      "byteOffset": 1332720,
      "componentType": 5125,
      "count": 335166,
      "type": "SCALAR"
    },
    {
      "bufferView": 2,
      "byteOffset": 3145536,
      "componentType": 5126,
      "count": 65532,
      "max": [
        7.381969928741455,
        3.8811299800872803,
        4.644646167755127
      ],
      "min": [
        -7.358866214752197,
        -11.201136589050293,
        -3.993001937866211
      ],
      "type": "VEC3"
    },
    {
      "bufferView": 2,
      "byteOffset": 3931920,
      "componentType": 5126,
      "count": 65532,
      "max": [
        0.9999989867210388,
        1.0,
        1.0
      ],
      "min": [
        -0.9999971389770508,
        -1.0,
        -1.0
      ],
      "type": "VEC3"
    },
    {
      "bufferView": 1,
      "byteOffset": 1048512,
      "componentType": 5126,
      "count": 65532,
      "max": [
        0.99965500831604,
        0.6206679940223694
      ],
      "min": [
        6.70000008540228e-05,
        0.13795100152492523
      ],
      "type": "VEC2"
    },
    {
      "bufferView": 0,
      "byteOffset": 2673384,
      "componentType": 5125,
      "count": 330798,
      "type": "SCALAR"
    },
    {
      "bufferView": 2,
      "byteOffset": 4718304,
      "componentType": 5126,
      "count": 12721,
      "max": [
        -7.000000096013537e-06,
        -1.3951430320739746,
        4.40091609954834
      ],
      "min": [
        -4.200463771820068,
        -6.48362922668457,
        0.21433000266551971
      ],
      "type": "VEC3"
    },
    {
      "bufferView": 2,
      "byteOffset": 4870956,
      "componentType": 5126,
      "count": 12721,
      "max": [
        0.9617557525634766,
        0.7196939587593079,
        0.9999749064445496
      ],
      "min": [
        -0.9996581077575684,
        -1.0,
        -0.9998091459274292
      ],
      "type": "VEC3"
    },
    {
      "bufferView": 1,
      "byteOffset": 1572768,
      "componentType": 5126,
      "count": 12721,
      "max": [
        0.99481201171875,
        0.6896430253982544
      ],
      "min": [
        2.4000000848900527e-05,
        0.5862420201301575
      ],
      "type": "VEC2"
    },
    {
      "bufferView": 0,
      "byteOffset": 3996576,
      "componentType": 5125,
      "count": 64044,
      "type": "SCALAR"
    },
    {
      "bufferView": 2,
      "byteOffset": 5023608,
      "componentType": 5126,
      "count": 10753,
      "max": [
        4.424231052398682,
        18.147172927856445,
        5.147066116333008
      ],
      "min": [
        -4.424232006072998,
        3.7273190021514893,
        -4.266965866088867
      ],
      "type": "VEC3"
    },
    {
      "bufferView": 2,
      "byteOffset": 5152644,
      "componentType": 5126,
      "count": 10753,
      "max": [
        1.0,
        1.0,
        1.0
      ],
      "min": [
        -1.0,
        -1.0,
        -1.0
      ],
      "type": "VEC3"
    },
    {
      "bufferView": 1,
      "byteOffset": 1674536,
      "componentType": 5126,
      "count": 10753,
      "max": [
        0.9995539784431458,
        0.9999510049819946
      ],
      "min": [
        0.00013600000238511711,
        1.9999999949504854e-06
      ],
      "type": "VEC2"
    },
    {
      "bufferView": 0,
      "byteOffset": 4252752,
      "componentType": 5125,
      "count": 55572,
      "type": "SCALAR"
    },
    {
      "bufferView": 2,
      "byteOffset": 5281680,
      "componentType": 5126,
      "count": 19512,
      "max": [
        5.95107889175415,
        16.429515838623047,
        2.067800998687744
      ],
      "min": [
        -5.951138019561768,
        4.506717205047607,
        -2.778986930847168
      ],
      "type": "VEC3"
    },
    {
      "bufferView": 2,
      "byteOffset": 5515824,
      "componentType": 5126,
      "count": 19512,
      "max": [
        1.0,
        1.0,
        1.0
      ],
      "min": [
        -1.0,
        -1.0,
        -1.0
      ],
      "type": "VEC3"
    },
    {
      "bufferView": 1,
      "byteOffset": 1760560,
      "componentType": 5126,
      "count": 19512,
      "max": [
        0.9998990297317505,
        0.8887559771537781
      ],
      "min": [
        3.199999991920777e-05,
        0.00011600000289035961
      ],
      "type": "VEC2"
    },
    {
      "bufferView": 0,
      "byteOffset": 4475040,
      "componentType": 5125,
      "count": 98796,
      "type": "SCALAR"
    },
    {
      "bufferView": 2,
      "byteOffset": 5749968,
      "componentType": 5126,
      "count": 30675,
      "max": [
        4.025568962097168,
        17.55134391784668,
        9.399312019348145
      ],
      "min": [
        -4.025615215301514,
        13.520044326782227,
        3.809830904006958
      ],
      "type": "VEC3"
    },
    {
      "bufferView": 2,
      "byteOffset": 6118068,
      "componentType": 5126,
      "count": 30675,
      "max": [
        1.0,
        1.0,
        1.0
      ],
      "min": [
        -1.0,
        -1.0,
        -1.0
      ],
      "type": "VEC3"
    },
    {
      "bufferView": 1,
      "byteOffset": 1916656,
      "componentType": 5126,
      "count": 30675,
      "max": [
        0.9999600052833557,
        0.9999619722366333
      ],
      "min": [
        1.9999999949504854e-06,
        1.8000000636675395e-05
      ],
      "type": "VEC2"
    },
    {
      "bufferView": 0,
      "byteOffset": 4870224,
      "componentType": 5125,
      "count": 152004,
      "type": "SCALAR"
    }
  ],
  "asset": {
    "extras": {
      "author": "Austin Beaulier (https://sketchfab.com/Austin.Beaulier)",
      "license": "SKETCHFAB Standard (https://sketchfab.com/licenses)",
      "source": "https://sketchfab.com/3d-models/robot-global-game-jam-oculus-medium-sculpt-bc8f1977bec044d1981aaf4cc6b4a727",
      "title": "Robot Global Game Jam Oculus Medium Sculpt"
    },
    "generator": "Sketchfab-15.49.0",
    "version": "2.0"
  },
  "bufferViews": [
    {
      "buffer": 0,
      "byteLength": 5478240,
      "name": "floatBufferViews",
      "target": 34963
    },
    {
      "buffer": 0,
      "byteLength": 2162056,
      "byteOffset": 5478240,
      "byteStride": 8,
      "name": "floatBufferViews",
      "target": 34962
    },
    {
      "buffer": 0,
      "byteLength": 6486168,
      "byteOffset": 7640296,
      "byteStride": 12,
      "name": "floatBufferViews",
      "target": 34962
    }
  ],
  "buffers": [
    {
      "byteLength": 14126464,
      "uri": "scene.bin"
    }
  ],
  "images": [
    {
      "uri": "textures/Layer_1_mtl_baseColor.png"
    },
    {
      "uri": "textures/Layer_2_mtl_baseColor.png"
    },
    {
      "uri": "textures/Layer_3_mtl_baseColor.png"
    },
    {
      "uri": "textures/Layer_4_mtl_baseColor.png"
    }
  ],
  "materials": [
    {
      "doubleSided": true,
      "name": "Layer_1_mtl",
      "pbrMetallicRoughness": {
        "baseColorTexture": {
          "index": 0
        },
        "metallicFactor": 0.0,
        "roughnessFactor": 0.28910984848484844
      }
    },
    {
      "doubleSided": true,
      "name": "Layer_2_mtl",
      "pbrMetallicRoughness": {
        "baseColorTexture": {
          "index": 1
        },
        "metallicFactor": 0.0,
        "roughnessFactor": 0.24062499999999998
      }
    },
    {
      "doubleSided": true,
      "name": "Layer_3_mtl",
      "pbrMetallicRoughness": {
        "baseColorTexture": {
          "index": 2
        },
        "metallicFactor": 0.0,
        "roughnessFactor": 0.08304924242424239
      }
    },
    {
      "doubleSided": true,
      "name": "Layer_4_mtl",
      "pbrMetallicRoughness": {
        "baseColorTexture": {
          "index": 3
        },
        "metallicFactor": 0.0,
        "roughnessFactor": 0.17395833333333333
      }
    }
  ],
  "meshes": [
    {
      "name": "Object_0",
      "primitives": [
        {
          "attributes": {
            "NORMAL": 1,
            "POSITION": 0,
            "TEXCOORD_0": 2
          },
          "indices": 3,
          "material": 0,
          "mode": 4
        }
      ]
    },
    {
      "name": "Object_1",
      "primitives": [
        {
          "attributes": {
            "NORMAL": 5,
            "POSITION": 4,
            "TEXCOORD_0": 6
          },
          "indices": 7,
          "material": 0,
          "mode": 4
        }
      ]
    },
    {
      "name": "Object_2",
      "primitives": [
        {
          "attributes": {
            "NORMAL": 9,
            "POSITION": 8,
            "TEXCOORD_0": 10
          },
          "indices": 11,
          "material": 0,
          "mode": 4
        }
      ]
    },
    {
      "name": "Object_3",
      "primitives": [
        {
          "attributes": {
            "NORMAL": 13,
            "POSITION": 12,
            "TEXCOORD_0": 14
          },
          "indices": 15,
          "material": 0,
          "mode": 4
        }
      ]
    },
    {
      "name": "Object_4",
      "primitives": [
        {
          "attributes": {
            "NORMAL": 17,
            "POSITION": 16,
            "TEXCOORD_0": 18
          },
          "indices": 19,
          "material": 1,
          "mode": 4
        }
      ]
    },
    {
      "name": "Object_5",
      "primitives": [
        {
          "attributes": {
            "NORMAL": 21,
            "POSITION": 20,
            "TEXCOORD_0": 22
          },
          "indices": 23,
          "material": 2,
          "mode": 4
        }
      ]
    },
    {
      "name": "Object_6",
      "primitives": [
        {
          "attributes": {
            "NORMAL": 25,
            "POSITION": 24,
            "TEXCOORD_0": 26
          },
          "indices": 27,
          "material": 3,
          "mode": 4
        }
      ]
    }
  ],
  "nodes": [
    {
      "children": [
        1
      ],
      "matrix": [
        -0.8159512877464294,
        -2.9490202476910174e-16,
        0.5781206488609314,
        0.0,
        5.551115123125783e-17,
        -1.0,
        -5.551115123125783e-16,
        0.0,
        0.5781206488609314,
        -4.0322218625075777e-16,
        0.8159512877464294,
        0.0,
        0.0,
        0.0,
        0.0,
        1.0
      ],
      "name": "Sketchfab_model"
    },
    {
      "children": [
        2,
        3,
        4,
        5,
        6,
        7,
        8
      ],
      "name": "robot.obj.cleaner.materialmerger.gles"
    },
    {
      "mesh": 0,
      "name": "Object_2"
    },
    {
      "mesh": 1,
      "name": "Object_3"
    },
    {
      "mesh": 2,
      "name": "Object_4"
    },
    {
      "mesh": 3,
      "name": "Object_5"
    },
    {
      "mesh": 4,
      "name": "Object_6"
    },
    {
      "mesh": 5,
      "name": "Object_7"
    },
    {
      "mesh": 6,
      "name": "Object_8"
    }
  ],
  "samplers": [
    {
      "magFilter": 9729,
      "minFilter": 9987,
      "wrapS": 10497,
      "wrapT": 10497
    }
  ],
  "scene": 0,
  "scenes": [
    {
      "name": "Sketchfab_Scene",
      "nodes": [
        0
      ]
    }
  ],
  "textures": [
    {
      "sampler": 0,
      "source": 0
    },
    {
      "sampler": 0,
      "source": 1
    },
    {
      "sampler": 0,
      "source": 2
    },
    {
      "sampler": 0,
      "source": 3
    }
  ]
}
