{
    "asset" : {
        "generator" : "Khronos glTF Blender I/O v0.9.36",
        "version" : "2.0"
    },
    "scene" : 0,
    "scenes" : [
        {
            "name" : "Scene",
            "nodes" : [
                0,
                1
            ]
        }
    ],
    "nodes" : [
        {
            "name" : "Light",
            "rotation" : [
                0.16907575726509094,
                0.7558803558349609,
                -0.27217137813568115,
                0.570947527885437
            ],
            "translation" : [
                4.076245307922363,
                5.903861999511719,
                -1.0054539442062378
            ]
        },
        {
            "mesh" : 0,
            "name" : "texturedMesh",
            "rotation" : [
                -0.43875524401664734,
                -0.1722431778907776,
                0.863280177116394,
                0.18048107624053955
            ],
            "translation" : [
                0.3748480975627899,
                1.4642751216888428,
                0.6716893315315247
            ]
        }
    ],
    "materials" : [
        {
            "doubleSided" : true,
            "name" : "TextureAtlas_0",
            "pbrMetallicRoughness" : {
                "baseColorTexture" : {
                    "index" : 0,
                    "texCoord" : 0
                },
                "metallicFactor" : 0,
                "roughnessFactor" : 1
            }
        }
    ],
    "meshes" : [
        {
            "name" : "texturedMesh",
            "primitives" : [
                {
                    "attributes" : {
                        "POSITION" : 0,
                        "NORMAL" : 1,
                        "TEXCOORD_0" : 2
                    },
                    "indices" : 3,
                    "material" : 0
                }
            ]
        }
    ],
    "textures" : [
        {
            "source" : 0
        }
    ],
    "images" : [
        {
            "mimeType" : "image/png",
            "name" : "texture_0",
            "uri" : "texture_0.png"
        }
    ],
    "accessors" : [
        {
            "bufferView" : 0,
            "componentType" : 5126,
            "count" : 28533,
            "max" : [
                0.3635772466659546,
                1.8390685319900513,
                0.5251833200454712
            ],
            "min" : [
                -0.33516812324523926,
                1.4159668684005737,
                -0.23410403728485107
            ],
            "type" : "VEC3"
        },
        {
            "bufferView" : 1,
            "componentType" : 5126,
            "count" : 28533,
            "type" : "VEC3"
        },
        {
            "bufferView" : 2,
            "componentType" : 5126,
            "count" : 28533,
            "type" : "VEC2"
        },
        {
            "bufferView" : 3,
            "componentType" : 5123,
            "count" : 28533,
            "type" : "SCALAR"
        }
    ],
    "bufferViews" : [
        {
            "buffer" : 0,
            "byteLength" : 342396,
            "byteOffset" : 0
        },
        {
            "buffer" : 0,
            "byteLength" : 342396,
            "byteOffset" : 342396
        },
        {
            "buffer" : 0,
            "byteLength" : 228264,
            "byteOffset" : 684792
        },
        {
            "buffer" : 0,
            "byteLength" : 57066,
            "byteOffset" : 913056
        }
    ],
    "buffers" : [
        {
            "byteLength" : 970124,
            "uri" : "cookie5.bin"
        }
    ]
}
