{
  "accessors": [
    {
      "bufferView": 2,
      "componentType": 5126,
      "count": 4413,
      "max": [
        100.61019897460938,
        1.0028760433197021,
        95.1231918334961
      ],
      "min": [
        -47.9949836730957,
        -195.3223876953125,
        -159.7799530029297
      ],
      "type": "VEC3"
    },
    {
      "bufferView": 2,
      "byteOffset": 52956,
      "componentType": 5126,
      "count": 4413,
      "max": [
        0.9999913573265076,
        0.9999987483024597,
        0.9996327757835388
      ],
      "min": [
        -0.9999918937683105,
        -0.9999984502792358,
        -0.999948263168335
      ],
      "type": "VEC3"
    },
    {
      "bufferView": 1,
      "componentType": 5126,
      "count": 4413,
      "max": [
        0.9301760196685791,
        0.9990839958190918
      ],
      "min": [
        0.002776999957859516,
        0.14877299964427948
      ],
      "type": "VEC2"
    },
    {
      "bufferView": 0,
      "componentType": 5125,
      "count": 10149,
      "type": "SCALAR"
    }
  ],
  "asset": {
    "extras": {
      "author": "Tigerar1 (https://sketchfab.com/allanromanreyes)",
      "license": "CC-BY-SA-4.0 (http://creativecommons.org/licenses/by-sa/4.0/)",
      "source": "https://sketchfab.com/3d-models/ms-07b-3-gouf-custom-561414d110374f798bd9aeab84f8d74c",
      "title": "MS-07B-3 Gouf Custom"
    },
    "generator": "Sketchfab-15.61.0",
    "version": "2.0"
  },
  "bufferViews": [
    {
      "buffer": 0,
      "byteLength": 40596,
      "name": "floatBufferViews",
      "target": 34963
    },
    {
      "buffer": 0,
      "byteLength": 35304,
      "byteOffset": 40596,
      "byteStride": 8,
      "name": "floatBufferViews",
      "target": 34962
    },
    {
      "buffer": 0,
      "byteLength": 105912,
      "byteOffset": 75900,
      "byteStride": 12,
      "name": "floatBufferViews",
      "target": 34962
    }
  ],
  "buffers": [
    {
      "byteLength": 181812,
      "uri": "scene.bin"
    }
  ],
  "images": [
    {
      "uri": "textures/Material01_baseColor.png"
    }
  ],
  "materials": [
    {
      "doubleSided": true,
      "name": "Material01",
      "pbrMetallicRoughness": {
        "baseColorTexture": {
          "index": 0
        },
        "metallicFactor": 0.0
      }
    }
  ],
  "meshes": [
    {
      "name": "Object_0",
      "primitives": [
        {
          "attributes": {
            "NORMAL": 1,
            "POSITION": 0,
            "TEXCOORD_0": 2
          },
          "indices": 3,
          "material": 0,
          "mode": 4
        }
      ]
    }
  ],
  "nodes": [
    {
      "children": [
        1
      ],
      "matrix": [
        -2.220446049250313e-16,
        -2.220446049250313e-16,
        1.0,
        0.0,
        -2.220446049250313e-16,
        -1.0,
        -2.220446049250313e-16,
        0.0,
        1.0,
        -2.2204460492503136e-16,
        2.2204460492503126e-16,
        0.0,
        0.0,
        0.0,
        0.0,
        1.0
      ],
      "name": "Sketchfab_model"
    },
    {
      "children": [
        2
      ],
      "name": "MS-07B-3 Gouf Custom - Ren.obj.cleaner.materialmerger.gles"
    },
    {
      "mesh": 0,
      "name": "Object_2"
    }
  ],
  "samplers": [
    {
      "magFilter": 9729,
      "minFilter": 9987,
      "wrapS": 10497,
      "wrapT": 10497
    }
  ],
  "scene": 0,
  "scenes": [
    {
      "name": "Sketchfab_Scene",
      "nodes": [
        0
      ]
    }
  ],
  "textures": [
    {
      "sampler": 0,
      "source": 0
    }
  ]
}
